<svg xmlns="http://www.w3.org/2000/svg" width="800" height="280" viewBox="0 0 800 280">
  <defs>
    <linearGradient id="bg" x1="0%" y1="0%" x2="100%" y2="100%">
      <stop offset="0%" style="stop-color:#11111b"/>
      <stop offset="50%" style="stop-color:#1e1e2e"/>
      <stop offset="100%" style="stop-color:#181825"/>
    </linearGradient>
    <linearGradient id="title-grad" x1="0%" y1="0%" x2="100%" y2="0%">
      <stop offset="0%" style="stop-color:#f38ba8"/>
      <stop offset="25%" style="stop-color:#fab387"/>
      <stop offset="50%" style="stop-color:#f9e2af"/>
      <stop offset="75%" style="stop-color:#a6e3a1"/>
      <stop offset="100%" style="stop-color:#89dceb"/>
    </linearGradient>
    <linearGradient id="wave1" x1="0%" y1="0%" x2="100%" y2="0%">
      <stop offset="0%" style="stop-color:#f38ba8;stop-opacity:0.10"/>
      <stop offset="100%" style="stop-color:#fab387;stop-opacity:0.05"/>
    </linearGradient>
    <linearGradient id="wave2" x1="0%" y1="0%" x2="100%" y2="0%">
      <stop offset="0%" style="stop-color:#89dceb;stop-opacity:0.08"/>
      <stop offset="100%" style="stop-color:#cba6f7;stop-opacity:0.04"/>
    </linearGradient>
    <linearGradient id="accent-line" x1="0%" y1="0%" x2="100%" y2="0%">
      <stop offset="0%" style="stop-color:#f38ba8;stop-opacity:0"/>
      <stop offset="20%" style="stop-color:#f38ba8"/>
      <stop offset="40%" style="stop-color:#fab387"/>
      <stop offset="60%" style="stop-color:#f9e2af"/>
      <stop offset="80%" style="stop-color:#a6e3a1"/>
      <stop offset="100%" style="stop-color:#89dceb;stop-opacity:0"/>
    </linearGradient>
    <filter id="glow">
      <feGaussianBlur stdDeviation="3" result="blur"/>
      <feMerge>
        <feMergeNode in="blur"/>
        <feMergeNode in="SourceGraphic"/>
      </feMerge>
    </filter>
  </defs>

  <rect width="800" height="280" rx="12" fill="url(#bg)"/>
  <rect width="800" height="280" rx="12" fill="none" stroke="#313244" stroke-width="1"/>
  <path d="M0,200 Q200,160 400,180 T800,150 L800,280 L0,280 Z" fill="url(#wave1)"/>
  <path d="M0,230 Q250,190 500,220 T800,190 L800,280 L0,280 Z" fill="url(#wave2)"/>

  <g opacity="0.08">
    <circle cx="680" cy="50" r="1.5" fill="#f38ba8"/>
    <circle cx="700" cy="45" r="1" fill="#fab387"/>
    <circle cx="720" cy="55" r="1.5" fill="#a6e3a1"/>
    <circle cx="695" cy="65" r="1" fill="#cba6f7"/>
    <circle cx="715" cy="38" r="1" fill="#89dceb"/>
    <circle cx="735" cy="48" r="1.5" fill="#f38ba8"/>
    <circle cx="660" cy="58" r="1" fill="#f9e2af"/>
    <circle cx="740" cy="62" r="1" fill="#b4befe"/>
    <circle cx="670" cy="40" r="1.5" fill="#fab387"/>
    <circle cx="750" cy="42" r="1" fill="#89dceb"/>
    <circle cx="90" cy="210" r="1.5" fill="#a6e3a1"/>
    <circle cx="70" cy="220" r="1" fill="#f38ba8"/>
    <circle cx="110" cy="225" r="1.5" fill="#89dceb"/>
    <circle cx="85" cy="235" r="1" fill="#cba6f7"/>
    <circle cx="55" cy="215" r="1" fill="#f9e2af"/>
    <circle cx="120" cy="215" r="1" fill="#fab387"/>
  </g>

  <text x="400" y="130" font-family="'SF Mono','Fira Code','JetBrains Mono','Cascadia Code',Consolas,monospace" font-size="64" font-weight="bold" fill="url(#title-grad)" text-anchor="middle" letter-spacing="12" filter="url(#glow)">RUNOFF</text>
  <rect x="200" y="148" width="400" height="2" rx="1" fill="url(#accent-line)"/>
  <text x="400" y="180" font-family="'SF Mono','Fira Code','JetBrains Mono','Cascadia Code',Consolas,monospace" font-size="14" fill="#bac2de" text-anchor="middle" letter-spacing="4">BLOODHOUND CE QUICK WIN EXTRACTOR</text>

  <g transform="translate(80, 210)">
    <rect x="0" y="0" width="120" height="28" rx="14" fill="#313244"/>
    <rect x="0" y="0" width="120" height="28" rx="14" fill="none" stroke="#45475a" stroke-width="0.5"/>
    <circle cx="18" cy="14" r="4" fill="#f38ba8"/>
    <text x="30" y="18" font-family="'SF Mono','Fira Code','JetBrains Mono',Consolas,monospace" font-size="11" fill="#cdd6f4">166 queries</text>

    <rect x="140" y="0" width="120" height="28" rx="14" fill="#313244"/>
    <rect x="140" y="0" width="120" height="28" rx="14" fill="none" stroke="#45475a" stroke-width="0.5"/>
    <circle cx="158" cy="14" r="4" fill="#fab387"/>
    <text x="170" y="18" font-family="'SF Mono','Fira Code','JetBrains Mono',Consolas,monospace" font-size="11" fill="#cdd6f4">attack paths</text>

    <rect x="280" y="0" width="150" height="28" rx="14" fill="#313244"/>
    <rect x="280" y="0" width="150" height="28" rx="14" fill="none" stroke="#45475a" stroke-width="0.5"/>
    <circle cx="298" cy="14" r="4" fill="#a6e3a1"/>
    <text x="310" y="18" font-family="'SF Mono','Fira Code','JetBrains Mono',Consolas,monospace" font-size="11" fill="#cdd6f4">abuse commands</text>

    <rect x="450" y="0" width="140" height="28" rx="14" fill="#313244"/>
    <rect x="450" y="0" width="140" height="28" rx="14" fill="none" stroke="#45475a" stroke-width="0.5"/>
    <circle cx="468" cy="14" r="4" fill="#89dceb"/>
    <text x="480" y="18" font-family="'SF Mono','Fira Code','JetBrains Mono',Consolas,monospace" font-size="11" fill="#cdd6f4">catppuccin ui</text>
  </g>
</svg>
