<svg xmlns="http://www.w3.org/2000/svg" width="800" height="280" viewBox="0 0 800 280">
  <defs>
    <linearGradient id="bg" x1="0%" y1="0%" x2="100%" y2="100%">
      <stop offset="0%" style="stop-color:#11111b"/>
      <stop offset="50%" style="stop-color:#1e1e2e"/>
      <stop offset="100%" style="stop-color:#181825"/>
    </linearGradient>
    <linearGradient id="title-grad" x1="0%" y1="0%" x2="100%" y2="0%">
      <stop offset="0%" style="stop-color:#94e2d5"/>
      <stop offset="50%" style="stop-color:#a6e3a1"/>
      <stop offset="100%" style="stop-color:#94e2d5"/>
    </linearGradient>
    <linearGradient id="accent-line" x1="0%" y1="0%" x2="100%" y2="0%">
      <stop offset="0%" style="stop-color:#94e2d5;stop-opacity:0"/>
      <stop offset="20%" style="stop-color:#94e2d5"/>
      <stop offset="50%" style="stop-color:#a6e3a1"/>
      <stop offset="80%" style="stop-color:#94e2d5"/>
      <stop offset="100%" style="stop-color:#94e2d5;stop-opacity:0"/>
    </linearGradient>
    <linearGradient id="branch-grad" x1="0%" y1="0%" x2="0%" y2="100%">
      <stop offset="0%" style="stop-color:#94e2d5"/>
      <stop offset="100%" style="stop-color:#a6e3a1"/>
    </linearGradient>
    <linearGradient id="wave1" x1="0%" y1="0%" x2="100%" y2="0%">
      <stop offset="0%" style="stop-color:#94e2d5;stop-opacity:0.08"/>
      <stop offset="100%" style="stop-color:#a6e3a1;stop-opacity:0.04"/>
    </linearGradient>
    <linearGradient id="wave2" x1="0%" y1="0%" x2="100%" y2="0%">
      <stop offset="0%" style="stop-color:#a6e3a1;stop-opacity:0.06"/>
      <stop offset="100%" style="stop-color:#94e2d5;stop-opacity:0.03"/>
    </linearGradient>
    <filter id="glow">
      <feGaussianBlur stdDeviation="3" result="blur"/>
      <feMerge>
        <feMergeNode in="blur"/>
        <feMergeNode in="SourceGraphic"/>
      </feMerge>
    </filter>
  </defs>

  <rect width="800" height="280" rx="12" fill="url(#bg)"/>
  <rect width="800" height="280" rx="12" fill="none" stroke="#313244" stroke-width="1"/>
  <path d="M0,200 Q200,160 400,180 T800,150 L800,280 L0,280 Z" fill="url(#wave1)"/>
  <path d="M0,230 Q250,190 500,220 T800,190 L800,280 L0,280 Z" fill="url(#wave2)"/>

  <!-- Branching attack path tree - top right decorative -->
  <g opacity="0.12" transform="translate(670, 30)">
    <!-- Root node -->
    <circle cx="40" cy="5" r="3" fill="#94e2d5"/>
    <!-- Trunk -->
    <line x1="40" y1="8" x2="40" y2="25" stroke="#94e2d5" stroke-width="1.5"/>
    <!-- Branch left -->
    <path d="M40,25 Q28,35 18,50" fill="none" stroke="#94e2d5" stroke-width="1.2"/>
    <!-- Branch right -->
    <path d="M40,25 Q55,38 65,52" fill="none" stroke="#a6e3a1" stroke-width="1.2"/>
    <!-- Branch center-right -->
    <path d="M40,25 Q45,40 48,55" fill="none" stroke="#a6e3a1" stroke-width="1"/>
    <!-- Sub-branches -->
    <path d="M18,50 Q10,58 8,68" fill="none" stroke="#a6e3a1" stroke-width="0.8"/>
    <path d="M18,50 Q22,60 28,68" fill="none" stroke="#a6e3a1" stroke-width="0.8"/>
    <path d="M65,52 Q72,62 78,70" fill="none" stroke="#a6e3a1" stroke-width="0.8"/>
    <path d="M65,52 Q60,63 58,72" fill="none" stroke="#a6e3a1" stroke-width="0.8"/>
    <!-- Leaf nodes -->
    <circle cx="8" cy="68" r="2" fill="#a6e3a1"/>
    <circle cx="28" cy="68" r="2" fill="#a6e3a1"/>
    <circle cx="48" cy="55" r="1.5" fill="#a6e3a1"/>
    <circle cx="78" cy="70" r="2" fill="#a6e3a1"/>
    <circle cx="58" cy="72" r="2" fill="#a6e3a1"/>
  </g>

  <!-- Branching attack path tree - bottom left decorative -->
  <g opacity="0.08" transform="translate(40, 185)">
    <circle cx="35" cy="5" r="2.5" fill="#94e2d5"/>
    <line x1="35" y1="7" x2="35" y2="20" stroke="#94e2d5" stroke-width="1.2"/>
    <path d="M35,20 Q22,30 15,42" fill="none" stroke="#a6e3a1" stroke-width="1"/>
    <path d="M35,20 Q48,32 55,44" fill="none" stroke="#a6e3a1" stroke-width="1"/>
    <circle cx="15" cy="42" r="1.5" fill="#a6e3a1"/>
    <circle cx="55" cy="44" r="1.5" fill="#a6e3a1"/>
  </g>

  <!-- Decorative dots -->
  <g opacity="0.08">
    <circle cx="680" cy="50" r="1.5" fill="#94e2d5"/>
    <circle cx="700" cy="45" r="1" fill="#a6e3a1"/>
    <circle cx="720" cy="55" r="1.5" fill="#94e2d5"/>
    <circle cx="695" cy="65" r="1" fill="#a6e3a1"/>
    <circle cx="715" cy="38" r="1" fill="#94e2d5"/>
    <circle cx="735" cy="48" r="1.5" fill="#a6e3a1"/>
    <circle cx="660" cy="58" r="1" fill="#94e2d5"/>
    <circle cx="740" cy="62" r="1" fill="#a6e3a1"/>
    <circle cx="670" cy="40" r="1.5" fill="#94e2d5"/>
    <circle cx="750" cy="42" r="1" fill="#a6e3a1"/>
    <circle cx="90" cy="210" r="1.5" fill="#a6e3a1"/>
    <circle cx="70" cy="220" r="1" fill="#94e2d5"/>
    <circle cx="110" cy="225" r="1.5" fill="#a6e3a1"/>
    <circle cx="85" cy="235" r="1" fill="#94e2d5"/>
    <circle cx="55" cy="215" r="1" fill="#a6e3a1"/>
    <circle cx="120" cy="215" r="1" fill="#94e2d5"/>
  </g>

  <text x="400" y="130" font-family="'SF Mono','Fira Code','JetBrains Mono','Cascadia Code',Consolas,monospace" font-size="64" font-weight="bold" fill="url(#title-grad)" text-anchor="middle" letter-spacing="12" filter="url(#glow)">RUNOFF</text>
  <rect x="200" y="148" width="400" height="2" rx="1" fill="url(#accent-line)"/>
  <text x="400" y="180" font-family="'SF Mono','Fira Code','JetBrains Mono','Cascadia Code',Consolas,monospace" font-size="14" fill="#bac2de" text-anchor="middle" letter-spacing="4">AD SECURITY AUDIT</text>

  <g transform="translate(80, 210)">
    <rect x="0" y="0" width="130" height="28" rx="14" fill="#313244"/>
    <rect x="0" y="0" width="130" height="28" rx="14" fill="none" stroke="#45475a" stroke-width="0.5"/>
    <circle cx="18" cy="14" r="4" fill="#94e2d5"/>
    <text x="30" y="18" font-family="'SF Mono','Fira Code','JetBrains Mono',Consolas,monospace" font-size="11" fill="#cdd6f4">177 queries</text>

    <rect x="148" y="0" width="120" height="28" rx="14" fill="#313244"/>
    <rect x="148" y="0" width="120" height="28" rx="14" fill="none" stroke="#45475a" stroke-width="0.5"/>
    <circle cx="166" cy="14" r="4" fill="#a6e3a1"/>
    <text x="178" y="18" font-family="'SF Mono','Fira Code','JetBrains Mono',Consolas,monospace" font-size="11" fill="#cdd6f4">attack paths</text>

    <rect x="286" y="0" width="150" height="28" rx="14" fill="#313244"/>
    <rect x="286" y="0" width="150" height="28" rx="14" fill="none" stroke="#45475a" stroke-width="0.5"/>
    <circle cx="304" cy="14" r="4" fill="#94e2d5"/>
    <text x="316" y="18" font-family="'SF Mono','Fira Code','JetBrains Mono',Consolas,monospace" font-size="11" fill="#cdd6f4">abuse commands</text>

    <rect x="454" y="0" width="140" height="28" rx="14" fill="#313244"/>
    <rect x="454" y="0" width="140" height="28" rx="14" fill="none" stroke="#45475a" stroke-width="0.5"/>
    <circle cx="472" cy="14" r="4" fill="#a6e3a1"/>
    <text x="484" y="18" font-family="'SF Mono','Fira Code','JetBrains Mono',Consolas,monospace" font-size="11" fill="#cdd6f4">catppuccin ui</text>
  </g>
</svg>